<mxfile host="app.diagrams.net" agent="Mozilla/5.0 (Windows NT 10.0; Win64; x64) AppleWebKit/537.36 (KHTML, like Gecko) Chrome/134.0.0.0 Safari/537.36" version="26.2.12">
  <diagram name="Page-1" id="fjMnKVXNaGP6IjeG0Aw4">
    <mxGraphModel dx="948" dy="29" grid="1" gridSize="10" guides="1" tooltips="1" connect="1" arrows="1" fold="1" page="1" pageScale="1" pageWidth="850" pageHeight="1100" math="0" shadow="0">
      <root>
        <mxCell id="0" />
        <mxCell id="1" parent="0" />
        <mxCell id="NKiWoUgMI4WtK5r3R0fM-39" style="edgeStyle=orthogonalEdgeStyle;rounded=0;orthogonalLoop=1;jettySize=auto;html=1;entryX=0.5;entryY=0;entryDx=0;entryDy=0;" edge="1" parent="1" source="NKiWoUgMI4WtK5r3R0fM-40" target="NKiWoUgMI4WtK5r3R0fM-43">
          <mxGeometry relative="1" as="geometry">
            <mxPoint x="400.08333333333326" y="2860" as="targetPoint" />
          </mxGeometry>
        </mxCell>
        <mxCell id="NKiWoUgMI4WtK5r3R0fM-40" value="Xóa ảnh sau 30 ngày&lt;div&gt;(ImageDetector/RemoveFolder.py)&lt;/div&gt;" style="rounded=1;whiteSpace=wrap;html=1;fillColor=#dae8fc;strokeColor=#6c8ebf;" vertex="1" parent="1">
          <mxGeometry x="295" y="2780" width="210" height="60" as="geometry" />
        </mxCell>
        <mxCell id="NKiWoUgMI4WtK5r3R0fM-41" style="edgeStyle=orthogonalEdgeStyle;rounded=0;orthogonalLoop=1;jettySize=auto;html=1;entryX=0.5;entryY=0;entryDx=0;entryDy=0;" edge="1" parent="1" source="NKiWoUgMI4WtK5r3R0fM-43" target="NKiWoUgMI4WtK5r3R0fM-48">
          <mxGeometry relative="1" as="geometry" />
        </mxCell>
        <mxCell id="NKiWoUgMI4WtK5r3R0fM-42" style="edgeStyle=orthogonalEdgeStyle;rounded=0;orthogonalLoop=1;jettySize=auto;html=1;entryX=0;entryY=0.5;entryDx=0;entryDy=0;" edge="1" parent="1" source="NKiWoUgMI4WtK5r3R0fM-43" target="NKiWoUgMI4WtK5r3R0fM-44">
          <mxGeometry relative="1" as="geometry">
            <Array as="points">
              <mxPoint x="290" y="2910" />
              <mxPoint x="290" y="3115" />
            </Array>
          </mxGeometry>
        </mxCell>
        <mxCell id="NKiWoUgMI4WtK5r3R0fM-43" value="day &amp;gt; 30 days?" style="rhombus;whiteSpace=wrap;html=1;fillColor=#d5e8d4;strokeColor=#82b366;" vertex="1" parent="1">
          <mxGeometry x="325" y="2870" width="150" height="80" as="geometry" />
        </mxCell>
        <mxCell id="NKiWoUgMI4WtK5r3R0fM-44" value="END" style="ellipse;whiteSpace=wrap;html=1;fillColor=#fff2cc;strokeColor=#d6b656;" vertex="1" parent="1">
          <mxGeometry x="340" y="3090" width="120" height="50" as="geometry" />
        </mxCell>
        <mxCell id="NKiWoUgMI4WtK5r3R0fM-45" value="True" style="text;html=1;align=center;verticalAlign=middle;whiteSpace=wrap;rounded=0;" vertex="1" parent="1">
          <mxGeometry x="415" y="2940" width="60" height="30" as="geometry" />
        </mxCell>
        <mxCell id="NKiWoUgMI4WtK5r3R0fM-46" value="False" style="text;html=1;align=center;verticalAlign=middle;whiteSpace=wrap;rounded=0;" vertex="1" parent="1">
          <mxGeometry x="290" y="2910" width="60" height="30" as="geometry" />
        </mxCell>
        <mxCell id="NKiWoUgMI4WtK5r3R0fM-47" style="edgeStyle=orthogonalEdgeStyle;rounded=0;orthogonalLoop=1;jettySize=auto;html=1;entryX=0.5;entryY=0;entryDx=0;entryDy=0;" edge="1" parent="1" source="NKiWoUgMI4WtK5r3R0fM-48" target="NKiWoUgMI4WtK5r3R0fM-44">
          <mxGeometry relative="1" as="geometry" />
        </mxCell>
        <mxCell id="NKiWoUgMI4WtK5r3R0fM-48" value="Remove images that day.&lt;div&gt;Keep images from 10 to 11 AM&lt;/div&gt;" style="rounded=1;whiteSpace=wrap;html=1;align=left;fillColor=#f5f5f5;fontColor=#333333;strokeColor=#666666;" vertex="1" parent="1">
          <mxGeometry x="308.44" y="2975" width="184.37" height="65" as="geometry" />
        </mxCell>
      </root>
    </mxGraphModel>
  </diagram>
</mxfile>
